{"asset": {"version": "2.0"}, "scene": 0, "scenes": [{"nodes": [0]}], "nodes": [{"mesh": 0, "name": "weapon"}], "meshes": [{"primitives": [{"attributes": {"POSITION": 0, "NORMAL": 1, "TEXCOORD_0": 2}, "indices": 3, "material": 0, "mode": 4}, {"attributes": {"POSITION": 4, "NORMAL": 5, "TEXCOORD_0": 6}, "indices": 7, "material": 1, "mode": 4}]}], "materials": [{"pbrMetallicRoughness": {"baseColorTexture": {"index": 0}, "metallicFactor": 0.0, "roughnessFactor": 0.8}, "name": "weapon_mat0"}, {"pbrMetallicRoughness": {"baseColorTexture": {"index": 1}, "metallicFactor": 0.0, "roughnessFactor": 0.8}, "name": "weapon_mat1"}], "textures": [{"source": 0}, {"source": 1}], "images": [{"uri": "weapon_tex0.png"}, {"uri": "weapon_tex3.png"}], "accessors": [{"bufferView": 0, "byteOffset": 0, "componentType": 5126, "count": 5712, "type": "VEC3", "min": [-2.742069, 4.353733, -7.484969], "max": [2.742069, 8.046116, 3.735632]}, {"bufferView": 1, "byteOffset": 0, "componentType": 5126, "count": 5712, "type": "VEC3"}, {"bufferView": 2, "byteOffset": 0, "componentType": 5126, "count": 5712, "type": "VEC2"}, {"bufferView": 3, "byteOffset": 0, "componentType": 5123, "count": 13482, "type": "SCALAR"}, {"bufferView": 0, "byteOffset": 68544, "componentType": 5126, "count": 85, "type": "VEC3", "min": [-0.422239, 6.780931, -1.358066], "max": [0.422239, 6.915903, 0.039459]}, {"bufferView": 1, "byteOffset": 68544, "componentType": 5126, "count": 85, "type": "VEC3"}, {"bufferView": 2, "byteOffset": 45696, "componentType": 5126, "count": 85, "type": "VEC2"}, {"bufferView": 3, "byteOffset": 26964, "componentType": 5123, "count": 300, "type": "SCALAR"}], "bufferViews": [{"buffer": 0, "byteOffset": 0, "byteLength": 69564, "target": 34962}, {"buffer": 0, "byteOffset": 69564, "byteLength": 69564, "target": 34962}, {"buffer": 0, "byteOffset": 139128, "byteLength": 46376, "target": 34962}, {"buffer": 0, "byteOffset": 185504, "byteLength": 27564, "target": 34963}], "buffers": [{"byteLength": 213068, "uri": "weapon.bin"}]}